<svg xmlns="http://www.w3.org/2000/svg" width="91.285" height="75.345" viewBox="0 0 91.285 75.345">
  <g id="Group_2" data-name="Group 2" transform="translate(-100.513 -393)">
    <g id="logo_green" data-name="logo green" transform="translate(100.513 401.113) rotate(-13)">
      <path id="Path_98" data-name="Path 98" d="M4.869,0H20.736C23.425,0,25.6,2.918,25.6,6.518V27.761c0,3.6-2.18,6.518-4.869,6.518H4.869C2.18,34.279,0,31.361,0,27.761V6.518C0,2.918,2.18,0,4.869,0Z" transform="translate(0.088 0.093)" fill="#b8e4b9"/>
      <path id="Subtraction_1" data-name="Subtraction 1" d="M15.627,34.372H4.8a3.706,3.706,0,0,1-1.868-.514,5.012,5.012,0,0,1-1.526-1.4A7,7,0,0,1,.377,30.38,8.566,8.566,0,0,1,0,27.836V6.535A8.567,8.567,0,0,1,.377,3.992,7,7,0,0,1,1.406,1.914,5.012,5.012,0,0,1,2.931.514,3.707,3.707,0,0,1,4.8,0H20.442A3.706,3.706,0,0,1,22.31.514a5.012,5.012,0,0,1,1.526,1.4,7,7,0,0,1,1.029,2.077,8.566,8.566,0,0,1,.377,2.544v9.907L17.525,8.914,8.191,27.558l7.436,6.813Z" transform="translate(0 0)" fill="#b7e3b8"/>
    </g>
    <g id="logo_green-2" data-name="logo green" transform="translate(133.195 393.261)">
      <path id="Path_98-2" data-name="Path 98" d="M4.869,0H20.736C23.425,0,25.6,2.918,25.6,6.518V27.761c0,3.6-2.18,6.518-4.869,6.518H4.869C2.18,34.279,0,31.361,0,27.761V6.518C0,2.918,2.18,0,4.869,0Z" transform="translate(0.481 0.855)" fill="#faabab"/>
      <path id="Subtraction_1-2" data-name="Subtraction 1" d="M16.1,35H4.944a3.851,3.851,0,0,1-1.924-.523,5.141,5.141,0,0,1-1.571-1.426A7.1,7.1,0,0,1,.388,30.935,8.631,8.631,0,0,1,0,28.345V6.655a8.631,8.631,0,0,1,.388-2.59A7.1,7.1,0,0,1,1.448,1.949,5.141,5.141,0,0,1,3.019.523,3.852,3.852,0,0,1,4.944,0H21.056a3.851,3.851,0,0,1,1.924.523,5.141,5.141,0,0,1,1.571,1.426,7.1,7.1,0,0,1,1.059,2.115A8.63,8.63,0,0,1,26,6.655V16.743L18.051,9.077,8.437,28.062,16.1,35Z" transform="translate(-0.195 -0.261)" fill="#faabab"/>
    </g>
    <g id="logo_green-3" data-name="logo green" transform="translate(166.784 395.333) rotate(13)">
      <path id="Path_98-3" data-name="Path 98" d="M4.869,0H20.736C23.425,0,25.6,2.918,25.6,6.518V27.761c0,3.6-2.18,6.518-4.869,6.518H4.869C2.18,34.279,0,31.361,0,27.761V6.518C0,2.918,2.18,0,4.869,0Z" transform="translate(0.088 0.093)" fill="#e1b2ea"/>
      <path id="Subtraction_1-3" data-name="Subtraction 1" d="M15.627,34.372H4.8a3.706,3.706,0,0,1-1.868-.514,5.012,5.012,0,0,1-1.526-1.4A7,7,0,0,1,.377,30.38,8.566,8.566,0,0,1,0,27.836V6.535A8.567,8.567,0,0,1,.377,3.992,7,7,0,0,1,1.406,1.914,5.012,5.012,0,0,1,2.931.514,3.707,3.707,0,0,1,4.8,0H20.442A3.706,3.706,0,0,1,22.31.514a5.012,5.012,0,0,1,1.526,1.4,7,7,0,0,1,1.029,2.077,8.566,8.566,0,0,1,.377,2.544v9.907L17.525,8.914,8.191,27.558l7.436,6.813Z" transform="translate(0 0)" fill="#e1b2ea"/>
    </g>
    <g id="Path_119" data-name="Path 119" transform="translate(114.177 405.483)" fill="rgba(255,255,255,0.07)">
      <path d="M 31.43124771118164 60.86249923706055 C 27.45717811584473 60.86249923706055 23.60303688049316 60.08461761474609 19.97588729858398 58.55046844482422 C 16.47147750854492 57.0682258605957 13.32376766204834 54.94584655761719 10.62020778656006 52.24228668212891 C 7.916647911071777 49.53872680664062 5.794267654418945 46.39101791381836 4.312027931213379 42.8866081237793 C 2.777877807617188 39.25945663452148 1.999997735023499 35.40531921386719 1.999997735023499 31.43124771118164 C 1.999997735023499 27.45717811584473 2.777877807617188 23.60303688049316 4.312027931213379 19.97588729858398 C 5.794267654418945 16.47147750854492 7.916647911071777 13.32376766204834 10.62020778656006 10.62020778656006 C 13.32376766204834 7.916647911071777 16.47147750854492 5.794267654418945 19.97588729858398 4.312027931213379 C 23.60303688049316 2.777877807617188 27.45717811584473 1.999997735023499 31.43124771118164 1.999997735023499 C 35.40531921386719 1.999997735023499 39.25945663452148 2.777877807617188 42.8866081237793 4.312027931213379 C 46.39101791381836 5.794267654418945 49.53872680664062 7.916647911071777 52.24228668212891 10.62020778656006 C 54.94584655761719 13.32376766204834 57.0682258605957 16.47147750854492 58.55046844482422 19.97588729858398 C 60.08461761474609 23.60303688049316 60.86249923706055 27.45717811584473 60.86249923706055 31.43124771118164 C 60.86249923706055 35.40531921386719 60.08461761474609 39.25945663452148 58.55046844482422 42.8866081237793 C 57.0682258605957 46.39101791381836 54.94584655761719 49.53872680664062 52.24228668212891 52.24228668212891 C 49.53872680664062 54.94584655761719 46.39101791381836 57.0682258605957 42.8866081237793 58.55046844482422 C 39.25945663452148 60.08461761474609 35.40531921386719 60.86249923706055 31.43124771118164 60.86249923706055 Z" stroke="none"/>
      <path d="M 31.43124771118164 4 C 27.72629547119141 4 24.13428115844727 4.7247314453125 20.75500106811523 6.154037475585938 C 17.48897552490234 7.535446166992188 14.55495452880859 9.513893127441406 12.034423828125 12.034423828125 C 9.513893127441406 14.55495452880859 7.535446166992188 17.48897552490234 6.154037475585938 20.75500106811523 C 4.7247314453125 24.13428115844727 4 27.72629547119141 4 31.43124771118164 C 4 35.13619995117188 4.7247314453125 38.72821044921875 6.154037475585938 42.10749435424805 C 7.535446166992188 45.37351989746094 9.513893127441406 48.30754089355469 12.034423828125 50.82807159423828 C 14.55495452880859 53.34860229492188 17.48897552490234 55.32704925537109 20.75500106811523 56.70845794677734 C 24.13428115844727 58.13776397705078 27.72629547119141 58.86249542236328 31.43124771118164 58.86249542236328 C 35.13619995117188 58.86249542236328 38.72821044921875 58.13776397705078 42.10749435424805 56.70845794677734 C 45.37351989746094 55.32704925537109 48.30754089355469 53.34860229492188 50.82807159423828 50.82807159423828 C 53.34860229492188 48.30754089355469 55.32704925537109 45.37351989746094 56.70845794677734 42.10749435424805 C 58.13776397705078 38.72821044921875 58.86249542236328 35.13619995117188 58.86249542236328 31.43124771118164 C 58.86249542236328 27.72629547119141 58.13776397705078 24.13428115844727 56.70845794677734 20.75500106811523 C 55.32704925537109 17.48897552490234 53.34860229492188 14.55495452880859 50.82807159423828 12.034423828125 C 48.30754089355469 9.513893127441406 45.37351989746094 7.535446166992188 42.10749435424805 6.154037475585938 C 38.72821044921875 4.7247314453125 35.13619995117188 4 31.43124771118164 4 M 31.43124771118164 0 C 48.79024887084961 0 62.86249542236328 14.07224655151367 62.86249542236328 31.43124771118164 C 62.86249542236328 48.79024887084961 48.79024887084961 62.86249542236328 31.43124771118164 62.86249542236328 C 14.07224655151367 62.86249542236328 0 48.79024887084961 0 31.43124771118164 C 0 14.07224655151367 14.07224655151367 0 31.43124771118164 0 Z" stroke="none" fill="#d89de2"/>
    </g>
    <ellipse id="Ellipse_4" data-name="Ellipse 4" cx="22.5" cy="23" rx="22.5" ry="23" transform="translate(123 414)" fill="rgba(216,157,226,0.2)"/>
    <circle id="Ellipse_5" data-name="Ellipse 5" cx="18.5" cy="18.5" r="18.5" transform="translate(127 418)" fill="rgba(216,157,226,0.4)"/>
    <circle id="Ellipse_6" data-name="Ellipse 6" cx="13.5" cy="13.5" r="13.5" transform="translate(132 423)" fill="rgba(216,157,226,0.59)"/>
    <path id="Path_120" data-name="Path 120" d="M7.5,0A7.5,7.5,0,1,1,0,7.5,7.5,7.5,0,0,1,7.5,0Z" transform="translate(137.822 429.128)" fill="#d89de2"/>
  </g>
</svg>
